<svg version="1" xmlns="http://www.w3.org/2000/svg" width="2560" height="2560" viewBox="0 0 1920.000000 1920.000000"><path d="M580 562.6c0 199.1-.3 366.6-.6 372.4-.8 14.1-2.8 22.3-7.2 29.7-2.9 4.9-42.8 45.3-187.9 190.5L200 1339.5l372.8.5c349.5.5 373.1.6 378.5 2.3 7 2.1 12.9 5 18.2 9 2.2 1.7 86.5 85.4 187.3 186.1l183.2 183.1.1-363.5c0-199.9.3-368.2.5-374 .5-12.2 3-20.8 8.2-29 2.3-3.5 69.6-71.6 187.6-189.8L1720.5 580H1348c-407.6 0-378.7.4-390.4-5.7-3.9-2.1-46.8-44.3-186.6-183.9-99.8-99.6-183.6-183-186.2-185.4l-4.8-4.3v361.9z"/></svg>